<?xml version="1.0" encoding="iso-8859-1"?>
<!-- Generator: Adobe Illustrator 19.0.0, SVG Export Plug-In . SVG Version: 6.00 Build 0)  -->
<svg version="1.1" id="Layer_1" xmlns="http://www.w3.org/2000/svg" xmlns:xlink="http://www.w3.org/1999/xlink" x="0px" y="0px"
	 viewBox="0 0 512 512" style="enable-background:new 0 0 512 512;" xml:space="preserve">
<g>
	<g>
		<path d="M371.409,83.814c-1.974-6.063-7.219-10.485-13.521-11.4l-59.984-8.718L271.069,9.334C268.257,3.62,262.434,0,256.055,0
			c-6.379,0-12.202,3.62-15.015,9.334l-26.835,54.363l-59.994,8.718c-6.303,0.916-11.548,5.337-13.521,11.4
			c-1.973,6.063-0.327,12.72,4.242,17.169l43.421,42.314l-10.26,59.744c-1.08,6.286,1.505,12.638,6.663,16.384
			c5.169,3.762,12.006,4.225,17.643,1.276l53.66-28.209l53.649,28.209c5.767,3.025,12.577,2.401,17.643-1.276
			c5.157-3.745,7.742-10.097,6.663-16.378l-10.25-59.75l43.41-42.314C371.737,96.535,373.372,89.877,371.409,83.814z"/>
	</g>
</g>
<g>
	<g>
		<path d="M322.995,255.185h-133.99c-9.25,0-16.749,7.499-16.749,16.749V512h167.488V271.934
			C339.744,262.684,332.245,255.185,322.995,255.185z"/>
	</g>
</g>
<g>
	<g>
		<path d="M21.517,322.18c-9.25,0-16.749,7.499-16.749,16.749v159.829c0,7.314,5.929,13.242,13.242,13.242h120.749V322.18H21.517z"
			/>
	</g>
</g>
<g>
	<g>
		<path d="M490.483,389.175H373.242V512h120.749c7.314,0,13.242-5.929,13.242-13.242v-92.834
			C507.232,396.674,499.733,389.175,490.483,389.175z"/>
	</g>
</g>
<g>
</g>
<g>
</g>
<g>
</g>
<g>
</g>
<g>
</g>
<g>
</g>
<g>
</g>
<g>
</g>
<g>
</g>
<g>
</g>
<g>
</g>
<g>
</g>
<g>
</g>
<g>
</g>
<g>
</g>
</svg>
